<?xml version="1.0" encoding="UTF-8"?>
<!-- Creator: CorelDRAW -->
<svg xmlns="http://www.w3.org/2000/svg" xml:space="preserve" width="6.82666in" height="6.82666in" style="shape-rendering:geometricPrecision; text-rendering:geometricPrecision; image-rendering:optimizeQuality; fill-rule:evenodd; clip-rule:evenodd"
viewBox="0 0 6.82666 6.82666"
 xmlns:xlink="http://www.w3.org/1999/xlink">
 <defs>
  <style type="text/css">
   <![CDATA[
    .fil2 {fill:none}
    .fil0 {fill:#212121;fill-rule:nonzero}
    .fil1 {fill:#66BB6A;fill-rule:nonzero}
   ]]>
  </style>
 </defs>
 <g id="Layer_x0020_1">
  <metadata id="CorelCorpID_0Corel-Layer"/>
  <path class="fil0" d="M2.14054 1.57541c-0.0430315,0.0398071 -0.110193,0.0371969 -0.15,-0.00583465 -0.0398071,-0.0430315 -0.0371969,-0.110193 0.00583465,-0.15 0.283496,-0.262488 0.852835,-0.394079 1.41768,-0.394083l0 -0.000417323c0.563642,0 1.13193,0.131276 1.41623,0.394496 0.0430315,0.0398071 0.0456417,0.106969 0.00583465,0.15 -0.0398071,0.0430315 -0.106969,0.0456417 -0.15,0.00583465 -0.242854,-0.22485 -0.755134,-0.336992 -1.27206,-0.336992l0 -0.000417323c-0.517614,0 -1.03079,0.112673 -1.27352,0.337413zm2.64054 1.73716c0.0227795,-0.0543071 0.0852795,-0.0798622 0.139587,-0.0570827 0.0543071,0.0227795 0.0798622,0.0852795 0.0570827,0.139587 -0.0383661,0.0914449 -0.0820591,0.183902 -0.125827,0.276528 -0.15922,0.336953 -0.319642,0.676449 -0.319642,1.27013 0,0.185378 -0.111567,0.342343 -0.269382,0.427516 -0.0749528,0.0404488 -0.161043,0.0646772 -0.250827,0.0677402 -0.0893504,0.00304331 -0.182114,-0.015189 -0.270815,-0.0596535 -0.127,-0.0636614 -0.244559,-0.180945 -0.327921,-0.366504 -0.0833661,0.185559 -0.200921,0.302843 -0.327921,0.366504 -0.0887008,0.0444646 -0.181465,0.0626969 -0.270815,0.0596535 -0.0897835,-0.00306299 -0.175878,-0.0272913 -0.250827,-0.0677402 -0.157815,-0.0851732 -0.269382,-0.242138 -0.269382,-0.427516 0,-0.593681 -0.160425,-0.933177 -0.319646,-1.27013 -0.0437677,-0.092626 -0.0874606,-0.185083 -0.125827,-0.276528 -0.0227795,-0.0543071 0.00277559,-0.116807 0.0570827,-0.139587 0.0543071,-0.0227795 0.116807,0.00277559 0.139587,0.0570827 0.0401811,0.0957677 0.0808858,0.181902 0.121661,0.268197 0.169602,0.358921 0.34048,0.720539 0.34048,1.36096 0,0.102071 0.0649724,0.190409 0.156878,0.240012 0.0473543,0.0255591 0.101161,0.0408465 0.156661,0.0427402 0.0559331,0.00190551 0.113886,-0.00944882 0.169146,-0.0371496 0.1215,-0.0609055 0.232272,-0.200346 0.290937,-0.449618 0.0129173,0.0039685 0.0260157,0.00740945 0.0392874,0.0102638 0.0304685,0.00655906 0.0615315,0.00998031 0.0927008,0.00998031 0.0454488,0 0.0896339,-0.00721654 0.131969,-0.0202402 0.0586693,0.249276 0.169449,0.388709 0.290949,0.449614 0.0552598,0.0277008 0.113213,0.0390551 0.169146,0.0371496 0.0555,-0.0018937 0.109303,-0.0171811 0.156661,-0.0427402 0.0919055,-0.0496024 0.156878,-0.137941 0.156878,-0.240012 0,-0.640413 0.170874,-1.00204 0.340476,-1.36096 0.0407756,-0.0862953 0.0814803,-0.172429 0.121661,-0.268197z"/>
  <path class="fil1" d="M3.39568 3.99375c-0.211213,0.000700787 -0.439965,-0.0655157 -0.439965,0.192795 0,0.179839 0.210591,0.464748 0.457618,0.464748 0.247028,0 0.45761,-0.284913 0.45761,-0.464748 0,-0.265429 -0.252413,-0.193539 -0.475264,-0.192795z"/>
  <g id="_453291712">
   <path id="_453291232" class="fil1" d="M2.68503 2.2622c0.0973346,0 0.17035,0.059437 0.220165,0.142453 0.0502756,0.0837992 0.0768189,0.196827 0.0768189,0.281406 0,0.108606 -0.0371417,0.168441 -0.107925,0.204421 -0.053811,0.0273425 -0.113421,0.029122 -0.189059,0.029122 -0.0860394,0 -0.19811,-0.0369055 -0.281602,-0.0953543 -0.0823307,-0.0576299 -0.142252,-0.138209 -0.142252,-0.233346 0,-0.0951378 0.0599213,-0.175717 0.142252,-0.233346 0.0834921,-0.0584488 0.195563,-0.0953543 0.281602,-0.0953543zm0.0376614 0.251618c-0.0133858,-0.0223071 -0.0270433,-0.0382795 -0.0376614,-0.0382795 -0.0471535,0 -0.11074,0.0217441 -0.159933,0.0561811 -0.0292756,0.0204921 -0.0505827,0.0422756 -0.0505827,0.0591811 0,0.0169055 0.0213071,0.038689 0.0505827,0.0591811 0.0491929,0.034437 0.11278,0.0561811 0.159933,0.0561811 0.0469843,0 0.0825433,-0.000354331 0.0932244,-0.00578346 0.00627953,-0.00319291 -0.00957874,-0.000413386 -0.00957874,-0.0144213 0,-0.0527165 -0.0158898,-0.122079 -0.0459843,-0.17224z"/>
   <path id="_453290968" class="fil1" d="M4.14163 2.47554c-0.0106181,0 -0.0242756,0.0159724 -0.0376614,0.0382795 -0.0300945,0.0501614 -0.0459843,0.119524 -0.0459843,0.17224 0,0.0140079 -0.0158583,0.0112283 -0.00957874,0.0144213 0.0106811,0.00542913 0.0462402,0.00578346 0.0932244,0.00578346 0.0471535,0 0.11074,-0.0217441 0.159933,-0.0561811 0.0292756,-0.0204921 0.0505827,-0.0422756 0.0505827,-0.0591811 0,-0.0169055 -0.0213071,-0.038689 -0.0505827,-0.0591811 -0.0491929,-0.034437 -0.11278,-0.0561811 -0.159933,-0.0561811zm-0.220165 -0.0708858c0.049815,-0.0830157 0.122831,-0.142453 0.220165,-0.142453 0.0860394,0 0.19811,0.0369055 0.281602,0.0953543 0.0823307,0.0576299 0.142252,0.138209 0.142252,0.233346 0,0.0951378 -0.0599213,0.175717 -0.142252,0.233346 -0.0834921,0.0584488 -0.195563,0.0953543 -0.281602,0.0953543 -0.0756378,0 -0.135248,-0.00177953 -0.189059,-0.029122 -0.0707835,-0.0359803 -0.107925,-0.095815 -0.107925,-0.204421 0,-0.0845787 0.0265433,-0.197606 0.0768189,-0.281406z"/>
  </g>
  <path class="fil0" d="M3.92001 5.32883c0,-0.0589094 0.0477598,-0.106669 0.106669,-0.106669 0.0589094,0 0.106669,0.0477598 0.106669,0.106669 0,0.141201 -0.088563,0.264661 -0.231732,0.350114 -0.126953,0.0757717 -0.299752,0.122642 -0.488287,0.122642 -0.188535,0 -0.361335,-0.0468701 -0.488287,-0.122642 -0.143169,-0.0854528 -0.231732,-0.208913 -0.231732,-0.350114 0,-0.0589094 0.0477598,-0.106669 0.106669,-0.106669 0.0589094,0 0.106669,0.0477598 0.106669,0.106669 0,0.0609803 0.048752,0.120575 0.127559,0.16761 0.0950354,0.0567205 0.228921,0.0918071 0.379122,0.0918071 0.150201,0 0.284087,-0.0350866 0.379122,-0.0918071 0.0788071,-0.0470354 0.127559,-0.10663 0.127559,-0.16761z"/>
  <g id="_453290632">
   <path id="_453291688" class="fil0" d="M2.14732 1.84073c0,0.0264291 -0.000531496,0.0777323 -0.00184646,0.159984 -0.00448819,0.281004 -0.0206063,0.751484 -0.0645866,1.15001 -0.0494803,0.448374 -0.148091,0.818146 -0.336472,0.818146 -0.00524803,0 -0.0104055,-0.00038189 -0.0154528,-0.00111811 -0.088874,-0.00814961 -0.162587,-0.0856969 -0.220555,-0.189366 -0.0682598,-0.122079 -0.122819,-0.289622 -0.145083,-0.386673 -0.0312559,-0.136236 -0.10887,-0.2505 -0.192984,-0.374327 -0.0635748,-0.0936024 -0.130504,-0.192118 -0.188236,-0.310866 -0.148228,-0.304866 -0.170862,-0.54074 -0.115378,-0.727854 0.0572362,-0.193039 0.193457,-0.327177 0.360598,-0.428264 0.0359173,-0.0217244 0.0862756,-0.0543898 0.143146,-0.0912756 0.115528,-0.0749331 0.255594,-0.165791 0.321378,-0.199343 0.269496,-0.137449 0.396453,-0.114988 0.459575,0.00877953 0.0413228,0.0810276 0.0288701,0.192138 0.0138071,0.326504 -0.00845669,0.0754488 -0.0179094,0.159732 -0.0179094,0.245661zm-0.21435 0.156654c0.000720472,-0.0450709 0.00101181,-0.101386 0.00101181,-0.156654 0,-0.0943701 0.0103307,-0.186508 0.0195787,-0.268992 0.0111614,-0.0995787 0.0203937,-0.181929 0.0078622,-0.206504 -0.000937008,-0.00184252 -0.0449803,0.0193071 -0.172906,0.0845512 -0.0602835,0.030748 -0.192862,0.116744 -0.302213,0.187673 -0.0646732,0.0419488 -0.121937,0.0790945 -0.14898,0.0954488 -0.125756,0.0760551 -0.227051,0.172929 -0.266433,0.30576 -0.0411417,0.138748 -0.0195157,0.323614 0.102882,0.57535 0.052,0.106961 0.113748,0.19785 0.172402,0.284205 0.0960748,0.141433 0.184724,0.271941 0.224654,0.445988 0.0192756,0.0840236 0.0658858,0.227957 0.123413,0.330846 0.0244646,0.043752 0.0440827,0.0765039 0.0498858,0.0804803l0.000287402 -3.93701e-006c0.0424567,0 0.086815,-0.283894 0.124803,-0.628138 0.0434882,-0.394087 0.0593622,-0.855197 0.063752,-1.13001z"/>
   <path id="_453291496" class="fil0" d="M4.89268 1.84073c0,0.0552677 0.000291339,0.111583 0.00101181,0.156654 0.00438976,0.274815 0.0202638,0.735925 0.063752,1.13001 0.0379882,0.344244 0.0823465,0.628138 0.124803,0.628138l0.000287402 3.93701e-006c0.00580315,-0.00397638 0.0254213,-0.0367283 0.0498858,-0.0804803 0.0575276,-0.10289 0.104138,-0.246823 0.123413,-0.330846 0.0399291,-0.174047 0.128579,-0.304555 0.224654,-0.445988 0.0586535,-0.0863543 0.120402,-0.177244 0.172402,-0.284205 0.122398,-0.251736 0.144024,-0.436602 0.102882,-0.57535 -0.0393819,-0.132831 -0.140677,-0.229705 -0.266433,-0.30576 -0.0270433,-0.0163543 -0.0843071,-0.0535 -0.14898,-0.0954488 -0.10935,-0.0709291 -0.241929,-0.156925 -0.302213,-0.187673 -0.127925,-0.0652441 -0.171969,-0.0863937 -0.172906,-0.0845512 -0.0125315,0.0245748 -0.00329921,0.106925 0.0078622,0.206504 0.00924803,0.0824843 0.0195787,0.174622 0.0195787,0.268992zm-0.211492 0.159984c-0.00131496,-0.082252 -0.00184646,-0.133555 -0.00184646,-0.159984 0,-0.0859291 -0.00945276,-0.170213 -0.0179094,-0.245661 -0.015063,-0.134366 -0.0275157,-0.245476 0.0138071,-0.326504 0.063122,-0.123768 0.190079,-0.146228 0.459575,-0.00877953 0.0657835,0.0335512 0.20585,0.124409 0.321378,0.199343 0.0568701,0.0368858 0.107228,0.0695512 0.143146,0.0912756 0.167142,0.101087 0.303362,0.235224 0.360598,0.428264 0.0554843,0.187114 0.0328504,0.422988 -0.115378,0.727854 -0.0577323,0.118748 -0.124661,0.217264 -0.188236,0.310866 -0.0841142,0.123827 -0.161728,0.238091 -0.192984,0.374327 -0.0222638,0.0970512 -0.0768228,0.264594 -0.145083,0.386673 -0.0579685,0.103669 -0.131681,0.181217 -0.220555,0.189366 -0.00504724,0.00073622 -0.0102047,0.00111811 -0.0154528,0.00111811 -0.188382,0 -0.286992,-0.369772 -0.336472,-0.818146 -0.0439803,-0.398528 -0.0600984,-0.869008 -0.0645866,-1.15001z"/>
  </g>
 </g>
 <rect class="fil2" width="6.82666" height="6.82666"/>
</svg>
